<svg width="24" height="22" viewBox="0 0 24 22" fill="none" xmlns="http://www.w3.org/2000/svg">
<path d="M11.4301 10.0682L9.33616 7.67715L9.6353 6.4816L16.2161 1.69947L20.0677 2.03649L21.1351 3.55271L16.8377 6.43784L23.3333 15.8595L21.8666 16.8904L15.3492 7.43713L11.4301 10.0682Z" fill="#CDBE91"/>
<path fill-rule="evenodd" clip-rule="evenodd" d="M3.74694 14.2397L7.16624 9.49389L12.8004 11.076L14.7295 16.5874L11.3102 21.3333L5.67603 19.7512L3.74694 14.2397ZM9.09156 11.9298L10.558 16.9532L6.15882 18.9627L8.114 15.9486L9.09156 11.9298Z" fill="#CDBE91"/>
<path d="M4.83907 7.0329L3.95924 0L7.03865 5.27468L7.47857 7.91201L4.83907 7.0329Z" fill="#CDBE91"/>
<path d="M3.95924 8.35157L0 7.0329L3.51933 10.1098L4.83907 9.23068L3.95924 8.35157Z" fill="#CDBE91"/>
</svg>
