<svg width="22" height="21" viewBox="0 0 22 21" fill="none" xmlns="http://www.w3.org/2000/svg">
<path d="M8.16342 2.33943C8.16342 2.0951 8.26113 1.87673 8.42617 1.71241C8.59112 1.55025 8.81044 1.45079 9.05572 1.45079H12.9464C13.1918 1.45079 13.411 1.54809 13.5761 1.71241C13.7389 1.87673 13.8387 2.0951 13.8387 2.33943V3.03347H15.2978V2.33943C15.2978 1.69511 15.0307 1.10701 14.6073 0.685395C14.1818 0.263779 13.5912 0 12.9442 0H9.05572C8.40872 0 7.81822 0.263779 7.39485 0.687558C6.97147 1.10917 6.70443 1.69727 6.70443 2.34159V3.03562H8.16342V2.33943Z" fill="#CDBE91"/>
<path d="M13.1175 13.472C12.705 13.7911 12.193 13.965 11.6642 13.965H11.6515L10.3124 13.9589C9.78789 13.9568 9.28016 13.7829 8.87195 13.4659L3.3846 9.21902V18.0686C3.3846 19.1937 4.33651 20.1143 5.49998 20.1143H16.5C17.6634 20.1143 18.6154 19.1937 18.6154 18.0686V9.21902L13.1175 13.472Z" fill="#CDBE91"/>
<path d="M18.6717 3.80103H3.32835C2.72912 3.80103 2.24279 4.28535 2.24279 4.8821V5.66695C2.24279 5.99559 2.3926 6.30694 2.65096 6.51018L9.63117 12.0711C9.82216 12.2226 10.0589 12.3068 10.3042 12.309L11.6785 12.3155H11.685C11.9325 12.3155 12.1714 12.2312 12.3624 12.0776L19.3513 6.51018C19.6096 6.30477 19.7594 5.99559 19.7594 5.66695V4.8821C19.7572 4.28535 19.2709 3.80103 18.6717 3.80103Z" fill="#CDBE91"/>
<path d="M1.69231 18.4381H1.20953C0.543335 18.4381 0 17.7479 0 16.9065V12.1738L1.67154 10.0572L1.69231 18.4381Z" fill="#CDBE91"/>
<path d="M20.3077 18.4381H20.7905C21.455 18.4381 22 17.7501 22 16.9065V12.1738L20.3285 10.0572L20.3077 18.4381Z" fill="#CDBE91"/>
</svg>
