<svg width="24" height="23" viewBox="0 0 24 23" fill="none" xmlns="http://www.w3.org/2000/svg">
<path d="M4.55317 12.2161H4.72092V10.1642C4.73219 9.54729 4.87721 8.94007 5.14605 8.38413C5.4149 7.82818 5.80122 7.33665 6.27858 6.94316C5.71379 6.80636 5.13443 6.73826 4.55317 6.74035C2.03694 6.74035 0 7.96912 0 9.54386C0 11.1186 2.03694 12.2161 4.55317 12.2161Z" fill="#CDBE91"/>
<path d="M4.72092 16.0218C4.72092 16.0218 4.72092 15.9025 4.72092 15.8547V14.3993H4.55317C2.94243 14.4286 1.35873 13.9846 0 13.1228V14.8646C0 16.3439 2.03694 17.5368 4.55317 17.5368H4.72092V16.0218Z" fill="#CDBE91"/>
<path d="M11.4309 7.43228C11.1236 7.41384 10.8155 7.41384 10.5082 7.43228C9.94973 7.50345 9.40231 7.64371 8.87868 7.84982C8.44231 8.03134 8.03782 8.28103 7.68048 8.58947C7.4496 8.77471 7.26081 9.00659 7.12656 9.26981C6.99231 9.53303 6.91565 9.8216 6.90165 10.1165C6.90165 11.6316 8.95057 12.8603 11.4668 12.8603C13.983 12.8603 16.02 11.6674 16.02 10.1165C15.984 8.66105 13.9471 7.43228 11.4309 7.43228Z" fill="#CDBE91"/>
<path d="M11.4309 18.1453C13.995 18.1453 15.9241 16.9523 15.984 15.9025V13.8386C14.6235 14.694 13.0394 15.1298 11.4309 15.0912C9.81875 15.1279 8.23134 14.6923 6.8657 13.8386V15.9025C6.93759 16.9761 8.85472 18.1453 11.4309 18.1453Z" fill="#CDBE91"/>
<path d="M15.984 19.4814V19.1712C14.6041 19.9752 13.0295 20.3877 11.4309 20.3642C9.82839 20.3881 8.24982 19.9756 6.8657 19.1712V19.4814C6.8657 21.2351 8.91463 22.6667 11.4309 22.6667C13.9471 22.6667 15.984 21.2351 15.984 19.4814Z" fill="#CDBE91"/>
<path d="M19.4109 5.47579C21.9271 5.47579 23.9641 4.28281 23.9641 2.74386C23.9623 2.55307 23.93 2.36378 23.8682 2.18316C23.4488 0.942456 21.5676 0 19.4109 0C17.2541 0 15.3729 0.942456 14.9416 2.18316C14.8798 2.36378 14.8475 2.55307 14.8457 2.74386C14.8457 4.25895 16.8947 5.47579 19.4109 5.47579Z" fill="#CDBE91"/>
<path d="M18.1408 12.6575V15.5088C18.5598 15.5859 18.9848 15.6259 19.4109 15.6281C21.7354 15.6281 23.5447 14.6737 23.9641 13.6954V11.5958C22.5814 12.3931 21.0086 12.8051 19.4109 12.7888C18.9853 12.7697 18.5612 12.7259 18.1408 12.6575Z" fill="#CDBE91"/>
<path d="M16.9665 7.34877C17.7132 8.09992 18.1421 9.10761 18.1648 10.1642V10.4386C18.5841 10.5118 19.0091 10.5477 19.4348 10.546C21.7594 10.546 23.5686 9.60351 23.988 8.62526V6.40631C22.628 7.26392 21.0444 7.70374 19.4348 7.67088C18.6013 7.67358 17.7712 7.56525 16.9665 7.34877Z" fill="#CDBE91"/>
<path d="M18.1408 17.7754V19.4814C18.1527 19.6681 18.1527 19.8554 18.1408 20.0421C18.5706 20.1295 19.0082 20.1735 19.4468 20.1733C21.9631 20.1733 24 18.8491 24 17.2028V16.7018C22.6173 17.499 21.0446 17.9111 19.4468 17.8947C19.0091 17.8873 18.5726 17.8475 18.1408 17.7754Z" fill="#CDBE91"/>
</svg>
