<svg width="22" height="20" viewBox="0 0 22 20" fill="none" xmlns="http://www.w3.org/2000/svg">
<path fill-rule="evenodd" clip-rule="evenodd" d="M17.8579 19.3334C20.3825 17.3453 22 14.2839 22 10.8498C22 4.85762 17.0751 0 11 0C4.92487 0 0 4.85762 0 10.8498C0 14.2839 1.61751 17.3453 4.14205 19.3334C4.68805 17.9155 6.8326 13.1513 11 13.1513C15.1674 13.1513 17.3119 17.9155 17.8579 19.3334ZM8.99996 10.268C9.59196 10.6474 10.288 10.8498 11 10.8498C11.9548 10.8498 12.8704 10.4861 13.5456 9.83871C14.2208 9.19125 14.6 8.31318 14.6 7.3976C14.6 6.71481 14.3889 6.04736 13.9933 5.47965C13.5977 4.91193 13.0355 4.46946 12.3776 4.20817C11.7198 3.94688 10.996 3.87852 10.2977 4.01172C9.59931 4.14492 8.95786 4.47371 8.45443 4.95652C7.95095 5.43932 7.60808 6.05444 7.46918 6.7241C7.33027 7.39377 7.40155 8.08789 7.67403 8.7187C7.94651 9.34949 8.40797 9.88865 8.99996 10.268Z" fill="#F0E6D2"/>
</svg>
